HIERARCHY
ROOT Hips
{
	OFFSET -0.726467 86.094116 2.458319
	CHANNELS 6 Xposition Yposition Zposition Zrotation Yrotation Xrotation 
	JOINT Spine
	{
		OFFSET -0.000000 8.814246 -2.080107
		CHANNELS 3 Zrotation Yrotation Xrotation
		JOINT Spine1
		{
			OFFSET -0.000000 8.844141 -0.000000
			CHANNELS 3 Zrotation Yrotation Xrotation
			JOINT Spine2
			{
				OFFSET -0.000000 11.682268 -0.000000
				CHANNELS 3 Zrotation Yrotation Xrotation
				JOINT Spine3
				{
					OFFSET -0.000000 11.746700 0.000000
					CHANNELS 3 Zrotation Yrotation Xrotation
					JOINT Neck
					{
						OFFSET -0.000000 17.658264 -0.000000
						CHANNELS 3 Zrotation Yrotation Xrotation
						JOINT Neck1
						{
							OFFSET -0.000000 5.101515 0.000000
							CHANNELS 3 Zrotation Yrotation Xrotation
							JOINT Head
							{
								OFFSET -0.000000 5.101515 0.000000
								CHANNELS 3 Zrotation Yrotation Xrotation
								JOINT HeadEnd
								{
									OFFSET -0.000000 11.655085 0.000000
									CHANNELS 3 Zrotation Yrotation Xrotation
									End Site
									{
										OFFSET 0.000000 0.000000 0.000000
									}
								}
							}
						}
					}
					JOINT RightShoulder
					{
						OFFSET -2.625389 11.175210 -0.000000
						CHANNELS 3 Zrotation Yrotation Xrotation
						JOINT RightArm
						{
							OFFSET 0.000000 10.434715 -0.000000
							CHANNELS 3 Zrotation Yrotation Xrotation
							JOINT RightForeArm
							{
								OFFSET 0.000000 29.628420 -0.000000
								CHANNELS 3 Zrotation Yrotation Xrotation
								JOINT RightHand
								{
									OFFSET 0.000000 22.857611 0.000000
									CHANNELS 3 Zrotation Yrotation Xrotation
									JOINT RightHandThumb1
									{
										OFFSET -2.867323 3.959563 2.944291
										CHANNELS 3 Zrotation Yrotation Xrotation
										JOINT RightHandThumb2
										{
											OFFSET 0.000000 3.350399 0.000000
											CHANNELS 3 Zrotation Yrotation Xrotation
											JOINT RightHandThumb3
											{
												OFFSET -0.000000 3.756509 -0.000000
												CHANNELS 3 Zrotation Yrotation Xrotation
												JOINT RightHandThumb4
												{
													OFFSET 0.000000 3.147345 -0.000000
													CHANNELS 3 Zrotation Yrotation Xrotation
													End Site
													{
														OFFSET 0.000000 0.000000 0.000000
													}
												}
											}
										}
									}
									JOINT RightHandIndex1
									{
										OFFSET -0.086752 10.030893 2.345280
										CHANNELS 3 Zrotation Yrotation Xrotation
										JOINT RightHandIndex2
										{
											OFFSET 0.000000 4.061090 0.000000
											CHANNELS 3 Zrotation Yrotation Xrotation
											JOINT RightHandIndex3
											{
												OFFSET -0.000000 3.248873 -0.000000
												CHANNELS 3 Zrotation Yrotation Xrotation
												JOINT RightHandIndex4
												{
													OFFSET 0.000000 2.639709 -0.000000
													CHANNELS 3 Zrotation Yrotation Xrotation
													End Site
													{
														OFFSET 0.000000 0.000000 0.000000
													}
												}
											}
										}
									}
									JOINT RightHandMiddle1
									{
										OFFSET 0.104102 9.502952 0.006768
										CHANNELS 3 Zrotation Yrotation Xrotation
										JOINT RightHandMiddle2
										{
											OFFSET 0.000000 4.568727 0.000000
											CHANNELS 3 Zrotation Yrotation Xrotation
											JOINT RightHandMiddle3
											{
												OFFSET -0.000000 3.654981 -0.000000
												CHANNELS 3 Zrotation Yrotation Xrotation
												JOINT RightHandMiddle4
												{
													OFFSET 0.000000 2.741236 0.000000
													CHANNELS 3 Zrotation Yrotation Xrotation
													End Site
													{
														OFFSET 0.000000 0.000000 0.000000
													}
												}
											}
										}
									}
									JOINT RightHandRing1
									{
										OFFSET 0.086752 8.921708 -2.267442
										CHANNELS 3 Zrotation Yrotation Xrotation
										JOINT RightHandRing2
										{
											OFFSET 0.000000 4.061090 -0.000000
											CHANNELS 3 Zrotation Yrotation Xrotation
											JOINT RightHandRing3
											{
												OFFSET 0.000000 3.654981 0.000000
												CHANNELS 3 Zrotation Yrotation Xrotation
												JOINT RightHandRing4
												{
													OFFSET 0.000000 2.741236 -0.000000
													CHANNELS 3 Zrotation Yrotation Xrotation
													End Site
													{
														OFFSET 0.000000 0.000000 0.000000
													}
												}
											}
										}
									}
									JOINT RightHandPinky1
									{
										OFFSET -0.173504 7.976997 -4.467199
										CHANNELS 3 Zrotation Yrotation Xrotation
										JOINT RightHandPinky2
										{
											OFFSET 0.000000 3.350399 -0.000000
											CHANNELS 3 Zrotation Yrotation Xrotation
											JOINT RightHandPinky3
											{
												OFFSET -0.000000 2.842763 0.000000
												CHANNELS 3 Zrotation Yrotation Xrotation
												JOINT RightHandPinky4
												{
													OFFSET -0.000000 2.639709 -0.000000
													CHANNELS 3 Zrotation Yrotation Xrotation
													End Site
													{
														OFFSET 0.000000 0.000000 0.000000
													}
												}
											}
										}
									}
									JOINT RightForeArmEnd
									{
										OFFSET 0.000000 0.000000 0.000000
										CHANNELS 3 Zrotation Yrotation Xrotation
										End Site
										{
											OFFSET 0.000000 0.000000 0.000000
										}
									}
								}
								JOINT RightArmEnd
								{
									OFFSET 0.000000 0.000000 0.000000
									CHANNELS 3 Zrotation Yrotation Xrotation
									End Site
									{
										OFFSET 0.000000 0.000000 0.000000
									}
								}
							}
						}
					}
					JOINT LeftShoulder
					{
						OFFSET 2.625389 11.175210 -0.000000
						CHANNELS 3 Zrotation Yrotation Xrotation
						JOINT LeftArm
						{
							OFFSET -0.000000 10.813635 0.000000
							CHANNELS 3 Zrotation Yrotation Xrotation
							JOINT LeftForeArm
							{
								OFFSET -0.000000 28.724781 -0.000000
								CHANNELS 3 Zrotation Yrotation Xrotation
								JOINT LeftHand
								{
									OFFSET 0.644384 25.716167 -0.328871
									CHANNELS 3 Zrotation Yrotation Xrotation
									JOINT LeftHandThumb1
									{
										OFFSET 2.867323 3.959563 2.944291
										CHANNELS 3 Zrotation Yrotation Xrotation
										JOINT LeftHandThumb2
										{
											OFFSET -0.000000 3.350399 0.000000
											CHANNELS 3 Zrotation Yrotation Xrotation
											JOINT LeftHandThumb3
											{
												OFFSET 0.000000 3.756509 -0.000000
												CHANNELS 3 Zrotation Yrotation Xrotation
												JOINT LeftHandThumb4
												{
													OFFSET 0.000000 3.100000 -0.000000
													CHANNELS 3 Zrotation Yrotation Xrotation
													End Site
													{
														OFFSET 0.000000 0.000000 0.000000
													}
												}
											}
										}
									}
									JOINT LeftHandIndex1
									{
										OFFSET 0.086752 10.030893 2.345280
										CHANNELS 3 Zrotation Yrotation Xrotation
										JOINT LeftHandIndex2
										{
											OFFSET -0.000000 4.061090 -0.000000
											CHANNELS 3 Zrotation Yrotation Xrotation
											JOINT LeftHandIndex3
											{
												OFFSET -0.000000 3.248873 0.000000
												CHANNELS 3 Zrotation Yrotation Xrotation
												JOINT LeftHandIndex4
												{
													OFFSET -0.000000 2.639709 0.000000
													CHANNELS 3 Zrotation Yrotation Xrotation
													End Site
													{
														OFFSET 0.000000 0.000000 0.000000
													}
												}
											}
										}
									}
									JOINT LeftHandMiddle1
									{
										OFFSET -0.104102 9.502952 0.006768
										CHANNELS 3 Zrotation Yrotation Xrotation
										JOINT LeftHandMiddle2
										{
											OFFSET 0.000000 4.568727 -0.000000
											CHANNELS 3 Zrotation Yrotation Xrotation
											JOINT LeftHandMiddle3
											{
												OFFSET -0.000000 3.654981 0.000000
												CHANNELS 3 Zrotation Yrotation Xrotation
												JOINT LeftHandMiddle4
												{
													OFFSET -0.000000 2.741236 0.000000
													CHANNELS 3 Zrotation Yrotation Xrotation
													End Site
													{
														OFFSET 0.000000 0.000000 0.000000
													}
												}
											}
										}
									}
									JOINT LeftHandRing1
									{
										OFFSET -0.086752 8.921708 -2.267442
										CHANNELS 3 Zrotation Yrotation Xrotation
										JOINT LeftHandRing2
										{
											OFFSET -0.000000 4.061090 -0.000000
											CHANNELS 3 Zrotation Yrotation Xrotation
											JOINT LeftHandRing3
											{
												OFFSET 0.000000 3.654981 -0.000000
												CHANNELS 3 Zrotation Yrotation Xrotation
												JOINT LeftHandRing4
												{
													OFFSET 0.000000 2.741236 -0.000000
													CHANNELS 3 Zrotation Yrotation Xrotation
													End Site
													{
														OFFSET 0.000000 0.000000 0.000000
													}
												}
											}
										}
									}
									JOINT LeftHandPinky1
									{
										OFFSET 0.173504 7.976997 -4.467199
										CHANNELS 3 Zrotation Yrotation Xrotation
										JOINT LeftHandPinky2
										{
											OFFSET 0.000000 3.350399 -0.000000
											CHANNELS 3 Zrotation Yrotation Xrotation
											JOINT LeftHandPinky3
											{
												OFFSET -0.000000 2.842763 0.000000
												CHANNELS 3 Zrotation Yrotation Xrotation
												JOINT LeftHandPinky4
												{
													OFFSET -0.000000 2.639709 -0.000000
													CHANNELS 3 Zrotation Yrotation Xrotation
													End Site
													{
														OFFSET 0.000000 0.000000 0.000000
													}
												}
											}
										}
									}
									JOINT LeftForeArmEnd
									{
										OFFSET 0.000000 0.000000 0.000000
										CHANNELS 3 Zrotation Yrotation Xrotation
										End Site
										{
											OFFSET 0.000000 0.000000 0.000000
										}
									}
								}
								JOINT LeftArmEnd
								{
									OFFSET 0.000000 0.000000 0.000000
									CHANNELS 3 Zrotation Yrotation Xrotation
									End Site
									{
										OFFSET 0.000000 0.000000 0.000000
									}
								}
							}
						}
					}
				}
			}
		}
	}
	JOINT RightUpLeg
	{
		OFFSET -11.289943 0.000000 0.000000
		CHANNELS 3 Zrotation Yrotation Xrotation
		JOINT RightLeg
		{
			OFFSET 0.000000 -38.200325 0.000000
			CHANNELS 3 Zrotation Yrotation Xrotation
			JOINT RightFoot
			{
				OFFSET -0.000000 -39.900856 -0.000000
				CHANNELS 3 Zrotation Yrotation Xrotation
				JOINT RightToeBase
				{
					OFFSET 0.000000 0.000000 15.261641
					CHANNELS 3 Zrotation Yrotation Xrotation
					JOINT RightToeBaseEnd
					{
						OFFSET -0.000000 -0.000000 7.370709
						CHANNELS 3 Zrotation Yrotation Xrotation
						End Site
						{
							OFFSET 0.000000 0.000000 0.000000
						}
					}
				}
				JOINT RightLegEnd
				{
					OFFSET 0.000000 0.000000 0.000000
					CHANNELS 3 Zrotation Yrotation Xrotation
					End Site
					{
						OFFSET 0.000000 0.000000 0.000000
					}
				}
			}
			JOINT RightUpLegEnd
			{
				OFFSET 0.000000 0.000000 0.000000
				CHANNELS 3 Zrotation Yrotation Xrotation
				End Site
				{
					OFFSET 0.000000 0.000000 0.000000
				}
			}
		}
	}
	JOINT LeftUpLeg
	{
		OFFSET 11.315661 0.000000 -0.000000
		CHANNELS 3 Zrotation Yrotation Xrotation
		JOINT LeftLeg
		{
			OFFSET 0.000000 -38.200325 -0.000000
			CHANNELS 3 Zrotation Yrotation Xrotation
			JOINT LeftFoot
			{
				OFFSET 0.000000 -39.900856 0.000000
				CHANNELS 3 Zrotation Yrotation Xrotation
				JOINT LeftToeBase
				{
					OFFSET 0.000000 -0.000000 15.261641
					CHANNELS 3 Zrotation Yrotation Xrotation
					JOINT LeftToeBaseEnd
					{
						OFFSET 0.000000 0.000000 7.539996
						CHANNELS 3 Zrotation Yrotation Xrotation
						End Site
						{
							OFFSET 0.000000 0.000000 0.000000
						}
					}
				}
				JOINT LeftLegEnd
				{
					OFFSET 0.000000 0.000000 0.000000
					CHANNELS 3 Zrotation Yrotation Xrotation
					End Site
					{
						OFFSET 0.000000 0.000000 0.000000
					}
				}
			}
			JOINT LeftUpLegEnd
			{
				OFFSET 0.000000 0.000000 0.000000
				CHANNELS 3 Zrotation Yrotation Xrotation
				End Site
				{
					OFFSET 0.000000 0.000000 0.000000
				}
			}
		}
	}
}
MOTION
Frames: 4
Frame Time: 0.016667
-0.807440 86.018730 13.238386 3.143721 -12.110793 -17.553757 -2.132692 0.546604 6.503290 -5.120969 1.450558 2.508005 4.915305 -3.775506 13.271610 1.388645 -0.457790 2.788074 -9.512991 4.440123 14.881759 3.492908 4.236117 -3.710942 -1.891464 -3.667685 -23.775278 0.000000 0.000000 0.000000 96.309784 -1.235163 4.161180 54.952747 -31.265564 6.036728 0.970824 14.816691 42.452389 5.562468 18.353338 -11.289070 8.388830 -1.560791 40.850487 0.000019 0.000008 -21.298632 -0.000018 0.000034 -14.657754 -0.000002 0.000004 -0.000035 8.801778 17.043940 -14.636232 8.391323 -0.820550 -1.988372 8.428395 0.183058 -1.860279 0.000017 -0.000007 -0.000007 10.558597 6.984394 -15.316045 8.900749 -0.912777 -0.865502 8.892895 0.067493 -0.714449 0.000010 0.000052 0.000022 17.402678 -8.816799 -14.629889 10.229476 1.871729 1.293730 10.064579 -0.091163 0.983463 -0.000009 0.000641 0.000021 22.706133 -24.924166 -15.236838 10.667286 3.641889 3.850263 10.327245 -0.326060 3.256347 -0.000342 0.000009 -0.000022 0.000000 0.000000 0.000000 0.000000 0.000000 0.000000 -96.257530 0.723757 5.564906 -57.580997 34.749252 0.433447 -4.389565 -18.212450 56.493996 2.756613 -2.296346 -12.252382 -8.160625 1.492189 41.168400 -0.000017 0.000022 -19.718021 -0.000088 -0.000007 -13.885631 0.001680 -0.000029 0.000832 -6.102435 17.362343 -8.363392 -4.071957 -0.806314 2.138659 -4.121318 0.146553 2.019269 0.000032 -0.000478 0.000011 -7.021554 7.126024 -10.509351 -4.709171 -0.925837 0.913075 -4.947732 0.064811 0.781722 0.001096 -0.000067 0.000033 -7.819607 -9.015083 -13.106601 -6.950632 1.889551 -1.381597 -6.825269 -0.091455 -1.057681 0.001459 -0.000011 -0.000004 -5.117870 -25.477369 -18.185085 -7.843369 3.673370 -3.948427 -7.902638 -0.288538 -3.359319 0.000535 0.000001 -0.000052 0.000000 0.000000 0.000000 0.000000 0.000000 0.000000 -9.700664 8.140779 9.277548 -0.417751 -1.100082 23.265211 1.603408 3.324307 10.222993 -0.512643 -0.452644 -27.603203 0.000000 0.000000 0.000000 0.000000 0.000000 0.000000 0.000000 0.000000 0.000000 0.628600 13.792281 18.916735 0.259269 1.063185 14.474000 0.952564 20.332987 12.590131 0.584342 0.541993 -27.741671 0.000000 0.000000 0.000000 0.000000 0.000000 0.000000 0.000000 0.000000 0.000000 
-1.287573 86.036392 13.349646 2.914372 -12.043631 -17.616371 -1.966478 0.512811 6.542048 -5.153475 1.450032 2.461309 5.133433 -3.896856 13.338647 1.403786 -0.476784 2.764978 -9.440222 4.440623 14.874372 3.479846 4.249332 -3.711592 -1.924909 -3.668228 -23.766016 0.000000 0.000000 0.000000 96.346649 -1.233953 4.141540 54.774616 -31.292828 6.050473 0.948408 14.708424 42.629871 5.460519 18.280664 -11.267690 8.410069 -1.562322 40.841171 0.000019 0.000008 -21.348553 -0.000017 0.000034 -14.694048 -0.000001 0.000005 -0.000035 8.956847 17.042109 -14.613481 8.479887 -0.817964 -2.001966 8.506280 0.185857 -1.871554 0.000017 -0.000007 -0.000007 10.673069 6.984835 -15.299397 8.975348 -0.912030 -0.870651 8.963711 0.068108 -0.718757 0.000010 0.000052 0.000021 17.470341 -8.816544 -14.622295 10.281378 1.870455 1.300614 10.117207 -0.092053 0.988562 -0.000009 0.000727 0.000021 22.730532 -24.924393 -15.253560 10.695933 3.638684 3.870471 10.357880 -0.328811 3.270531 -0.000343 0.000009 -0.000023 0.000000 0.000000 0.000000 0.000000 0.000000 0.000000 -96.300156 0.728674 5.559874 -57.777981 34.645046 0.298064 -4.398309 -18.165627 56.161041 2.660679 -2.567485 -12.243423 -8.244118 1.502890 41.127693 -0.000017 0.000022 -19.937202 -0.000087 -0.000006 -14.034434 0.001641 -0.000029 0.000826 -6.547200 17.357883 -8.441857 -4.285471 -0.803760 2.156633 -4.338050 0.148995 2.034569 0.000033 -0.000485 0.000011 -7.404141 7.124577 -10.554198 -4.922009 -0.924931 0.918858 -5.163831 0.065617 0.787477 0.001108 -0.000067 0.000037 -8.148156 -9.010884 -13.102217 -7.136522 1.887775 -1.391382 -7.018858 -0.092417 -1.064643 0.001388 -0.000012 -0.000004 -5.395595 -25.464973 -18.139366 -7.984249 3.669317 -3.976611 -8.048925 -0.292055 -3.382469 0.000535 0.000001 -0.000053 0.000000 0.000000 0.000000 0.000000 0.000000 0.000000 -9.155279 7.981865 9.695799 -0.406703 -1.085452 22.965284 1.299954 3.143523 10.133507 -0.493877 -0.430989 -27.496353 0.000000 0.000000 0.000000 0.000000 0.000000 0.000000 0.000000 0.000000 0.000000 1.290218 13.693865 19.215544 0.268008 1.099173 14.462942 0.490448 20.232807 12.459153 0.632536 0.524799 -27.666206 0.000000 0.000000 0.000000 0.000000 0.000000 0.000000 0.000000 0.000000 0.000000 
-1.777624 86.055557 13.458426 2.665475 -11.946441 -17.667969 -1.792746 0.476702 6.581058 -5.189303 1.450314 2.415859 5.363342 -4.025612 13.406313 1.417706 -0.496422 2.738956 -9.359361 4.422707 14.859708 3.463151 4.248264 -3.716889 -1.954474 -3.667871 -23.754187 0.000000 0.000000 0.000000 96.385620 -1.232347 4.119943 54.592171 -31.315575 6.054825 0.929431 14.593352 42.751759 5.351758 18.241398 -11.280133 8.432525 -1.564067 40.831245 0.000019 0.000009 -21.400925 -0.000017 0.000034 -14.732074 -0.000001 0.000005 -0.000035 9.112403 17.038443 -14.594247 8.565637 -0.815316 -2.015381 8.581904 0.188663 -1.882868 0.000018 -0.000007 -0.000008 10.791701 6.984599 -15.285182 9.047725 -0.911253 -0.875735 9.031577 0.068730 -0.723030 0.000010 0.000052 0.000021 17.541815 -8.815671 -14.611734 10.331097 1.869179 1.307418 10.168247 -0.092945 0.993637 -0.000009 0.000811 0.000020 22.758772 -24.922993 -15.264110 10.722361 3.635325 3.890456 10.386649 -0.331605 3.284570 -0.000346 0.000008 -0.000023 0.000000 0.000000 0.000000 0.000000 0.000000 0.000000 -96.344841 0.734070 5.555845 -57.965454 34.539589 0.172594 -4.405491 -18.115835 55.823799 2.573165 -2.841746 -12.249559 -8.323945 1.513321 41.088276 -0.000018 0.000023 -20.147993 -0.000086 -0.000006 -14.176719 0.001593 -0.000030 0.000829 -6.979301 17.350504 -8.515911 -4.490556 -0.801320 2.173555 -4.546782 0.151313 2.049161 0.000033 -0.000487 0.000011 -7.775166 7.122277 -10.596734 -5.127447 -0.924009 0.924281 -5.371913 0.066373 0.792952 0.001120 -0.000068 0.000040 -8.468411 -9.006215 -13.094356 -7.317216 1.885989 -1.400633 -7.206669 -0.093329 -1.071253 0.001314 -0.000012 -0.000003 -5.668257 -25.453001 -18.090710 -8.123265 3.665215 -4.003108 -8.193051 -0.295417 -3.404345 0.000536 0.000001 -0.000053 0.000000 0.000000 0.000000 0.000000 0.000000 0.000000 -8.579033 7.801900 10.120575 -0.395061 -1.069771 22.657925 0.988367 2.937760 10.054507 -0.473716 -0.408864 -27.393581 0.000000 0.000000 0.000000 0.000000 0.000000 0.000000 0.000000 0.000000 0.000000 1.973686 13.563054 19.495861 0.276863 1.134406 14.466792 0.025886 20.111086 12.328124 0.681091 0.509252 -27.594456 0.000000 0.000000 0.000000 0.000000 0.000000 0.000000 0.000000 0.000000 0.000000 
-2.276251 86.075851 13.564461 2.397707 -11.819669 -17.708122 -1.611936 0.438194 6.619511 -5.228434 1.451311 2.371976 5.605059 -4.161931 13.474000 1.430381 -0.516801 2.710425 -9.271243 4.386530 14.836292 3.442814 4.232917 -3.727731 -1.980061 -3.666766 -23.739931 0.000000 0.000000 0.000000 96.425697 -1.230577 4.095840 54.406731 -31.332087 6.049893 0.914158 14.473207 42.818336 5.237518 18.234636 -11.327367 8.456429 -1.566062 40.820618 0.000019 0.000009 -21.456234 -0.000016 0.000034 -14.772124 -0.000001 0.000005 -0.000035 9.270065 17.033064 -14.579143 8.649776 -0.812601 -2.028741 8.656556 0.191484 -1.894311 0.000018 -0.000007 -0.000008 10.916092 6.983723 -15.274076 9.119246 -0.910436 -0.880822 9.097899 0.069367 -0.727305 0.000010 0.000052 0.000020 17.618793 -8.814239 -14.599320 10.380281 1.867897 1.314212 10.219182 -0.093844 0.998752 -0.000009 0.000894 0.000020 22.792595 -24.920088 -15.269596 10.748017 3.631815 3.910325 10.414992 -0.334470 3.298628 -0.000349 0.000008 -0.000024 0.000000 0.000000 0.000000 0.000000 0.000000 0.000000 -96.390862 0.739862 5.552923 -58.143452 34.434544 0.059181 -4.410656 -18.065096 55.487110 2.493066 -3.119437 -12.268914 -8.400173 1.523455 41.050190 -0.000018 0.000023 -20.350178 -0.000085 -0.000006 -14.312465 0.001535 -0.000031 0.000841 -7.398574 17.340614 -8.584537 -4.687780 -0.798973 2.189593 -4.747996 0.153531 2.063186 0.000033 -0.000483 0.000011 -8.135013 7.119267 -10.636339 -5.325993 -0.923071 0.929425 -5.572482 0.067089 0.798201 0.001128 -0.000068 0.000043 -8.780659 -9.001271 -13.083489 -7.493149 1.884204 -1.409426 -7.389030 -0.094204 -1.077573 0.001237 -0.000012 -0.000003 -5.936241 -25.441824 -18.040314 -8.260940 3.661069 -4.028131 -8.335498 -0.298637 -3.425106 0.000538 0.000000 -0.000054 0.000000 0.000000 0.000000 0.000000 0.000000 0.000000 -7.974363 7.601275 10.549926 -0.382869 -1.053000 22.342817 0.670057 2.707947 9.986835 -0.452353 -0.386561 -27.295317 0.000000 0.000000 0.000000 0.000000 0.000000 0.000000 0.000000 0.000000 0.000000 2.676892 13.400860 19.753643 0.285818 1.168601 14.488976 -0.439372 19.967194 12.197116 0.729496 0.495667 -27.526596 0.000000 0.000000 0.000000 0.000000 0.000000 0.000000 0.000000 0.000000 0.000000 
